<?xml version="1.0" encoding="UTF-8"?>
<svg id="Layer_1" data-name="Layer 1" xmlns="http://www.w3.org/2000/svg" version="1.1" viewBox="0 0 601 601">
  <defs>
    <style>
      .cls-1 {
        fill: #a5a5a4;
      }

      .cls-1, .cls-2, .cls-3, .cls-4, .cls-5, .cls-6, .cls-7, .cls-8, .cls-9 {
        stroke-width: 0px;
      }

      .cls-2 {
        fill: #14a085;
      }

      .cls-3 {
        fill: #e6e7e8;
      }

      .cls-4 {
        fill: #4482c3;
      }

      .cls-5 {
        fill: #b0d3f0;
      }

      .cls-6 {
        fill: #cb9080;
      }

      .cls-7 {
        fill: #2c3e50;
      }

      .cls-8 {
        fill: #35495e;
      }

      .cls-9 {
        fill: #90bae1;
      }

      .cls-10 {
        fill: #9c27b0;
        stroke: #000;
        stroke-miterlimit: 10;
      }
    </style>
  </defs>
  <rect class="cls-10" x="-449.5" y="-449.5" width="1500" height="1500"/>
  <g>
    <path class="cls-8" d="M235.85,145.68h134.48c11.42,0,20.69,11.42,20.69,20.69v258.62c0,11.42-9.27,20.69-20.69,20.69h-134.48c-11.42,0-20.69-11.42-20.69-20.69V166.37c0-11.42,9.27-20.69,20.69-20.69h0Z"/>
    <path class="cls-5" d="M375.5,378.44v46.55c0,2.86-2.32,5.17-5.17,5.17h-134.48c-2.86,0-5.17-2.32-5.17-5.17v-46.55h144.83-.01ZM375.5,166.37v36.21h-144.83v-36.21c0-2.86,2.32-5.17,5.17-5.17h16.97c2.23.03,4.2,1.46,4.9,3.56l1.61,4.85v.03c1.4,4.23,5.37,7.08,9.81,7.08h67.89c4.44,0,8.41-2.86,9.81-7.08l1.61-4.85v-.03c.7-2.1,2.67-3.53,4.9-3.56h16.97c2.86,0,5.17,2.32,5.17,5.17h.02Z"/>
    <rect class="cls-9" x="230.67" y="202.57" width="144.83" height="175.86"/>
    <path class="cls-1" d="M328.95,166.37c-1.37.03-2.7-.54-3.66-1.51-.97-.97-1.54-2.29-1.51-3.66.03-1.37.57-2.7,1.51-3.66,2.08-1.92,5.25-1.92,7.32,0,2.02,2.02,2.02,5.3,0,7.32-.99.94-2.29,1.48-3.66,1.51Z"/>
    <path class="cls-2" d="M251.36,393.95h10.34c2.86,0,5.17,2.86,5.17,5.17v10.34c0,2.86-2.32,5.17-5.17,5.17h-10.34c-2.86,0-5.17-2.86-5.17-5.17v-10.34c0-2.86,2.32-5.17,5.17-5.17h0Z"/>
    <path class="cls-4" d="M282.4,393.95h10.34c2.86,0,5.17,2.86,5.17,5.17v10.34c0,2.86-2.32,5.17-5.17,5.17h-10.34c-2.86,0-5.17-2.86-5.17-5.17v-10.34c0-2.86,2.32-5.17,5.17-5.17Z"/>
    <path class="cls-2" d="M313.43,393.95h10.34c2.86,0,5.17,2.86,5.17,5.17v10.34c0,2.86-2.32,5.17-5.17,5.17h-10.34c-2.86,0-5.17-2.86-5.17-5.17v-10.34c0-2.86,2.32-5.17,5.17-5.17Z"/>
    <path class="cls-3" d="M344.47,393.95h10.34c2.86,0,5.17,2.86,5.17,5.17v10.34c0,2.86-2.32,5.17-5.17,5.17h-10.34c-2.86,0-5.17-2.86-5.17-5.17v-10.34c0-2.86,2.32-5.17,5.17-5.17Z"/>
    <path class="cls-4" d="M251.36,218.09h10.34c2.86,0,5.17,2.86,5.17,5.17v10.34c0,2.86-2.32,5.17-5.17,5.17h-10.34c-2.86,0-5.17-2.86-5.17-5.17v-10.34c0-2.86,2.32-5.17,5.17-5.17h0Z"/>
    <path class="cls-6" d="M282.4,218.09h10.34c2.86,0,5.17,2.86,5.17,5.17v10.34c0,2.86-2.32,5.17-5.17,5.17h-10.34c-2.86,0-5.17-2.86-5.17-5.17v-10.34c0-2.86,2.32-5.17,5.17-5.17Z"/>
    <path class="cls-3" d="M313.43,218.09h10.34c2.86,0,5.17,2.86,5.17,5.17v10.34c0,2.86-2.32,5.17-5.17,5.17h-10.34c-2.86,0-5.17-2.86-5.17-5.17v-10.34c0-2.86,2.32-5.17,5.17-5.17Z"/>
    <path class="cls-4" d="M344.47,218.09h10.34c2.86,0,5.17,2.86,5.17,5.17v10.34c0,2.86-2.32,5.17-5.17,5.17h-10.34c-2.86,0-5.17-2.86-5.17-5.17v-10.34c0-2.86,2.32-5.17,5.17-5.17Z"/>
    <path class="cls-6" d="M251.36,254.3h10.34c2.86,0,5.17,2.86,5.17,5.17v10.34c0,2.86-2.32,5.17-5.17,5.17h-10.34c-2.86,0-5.17-2.86-5.17-5.17v-10.34c0-2.86,2.32-5.17,5.17-5.17h0Z"/>
    <path class="cls-3" d="M282.4,254.3h10.34c2.86,0,5.17,2.86,5.17,5.17v10.34c0,2.86-2.32,5.17-5.17,5.17h-10.34c-2.86,0-5.17-2.86-5.17-5.17v-10.34c0-2.86,2.32-5.17,5.17-5.17Z"/>
    <path class="cls-2" d="M313.43,254.3h10.34c2.86,0,5.17,2.86,5.17,5.17v10.34c0,2.86-2.32,5.17-5.17,5.17h-10.34c-2.86,0-5.17-2.86-5.17-5.17v-10.34c0-2.86,2.32-5.17,5.17-5.17Z"/>
    <path class="cls-4" d="M344.47,254.3h10.34c2.86,0,5.17,2.86,5.17,5.17v10.34c0,2.86-2.32,5.17-5.17,5.17h-10.34c-2.86,0-5.17-2.86-5.17-5.17v-10.34c0-2.86,2.32-5.17,5.17-5.17Z"/>
    <path class="cls-3" d="M251.36,290.5h10.34c2.86,0,5.17,2.86,5.17,5.17v10.34c0,2.86-2.32,5.17-5.17,5.17h-10.34c-2.86,0-5.17-2.86-5.17-5.17v-10.34c0-2.86,2.32-5.17,5.17-5.17h0Z"/>
    <path class="cls-4" d="M282.4,290.5h10.34c2.86,0,5.17,2.86,5.17,5.17v10.34c0,2.86-2.32,5.17-5.17,5.17h-10.34c-2.86,0-5.17-2.86-5.17-5.17v-10.34c0-2.86,2.32-5.17,5.17-5.17Z"/>
    <path class="cls-2" d="M313.43,290.5h10.34c2.86,0,5.17,2.86,5.17,5.17v10.34c0,2.86-2.32,5.17-5.17,5.17h-10.34c-2.86,0-5.17-2.86-5.17-5.17v-10.34c0-2.86,2.32-5.17,5.17-5.17Z"/>
    <path class="cls-3" d="M344.47,290.5h10.34c2.86,0,5.17,2.86,5.17,5.17v10.34c0,2.86-2.32,5.17-5.17,5.17h-10.34c-2.86,0-5.17-2.86-5.17-5.17v-10.34c0-2.86,2.32-5.17,5.17-5.17Z"/>
    <path class="cls-2" d="M251.36,326.71h10.34c2.86,0,5.17,2.86,5.17,5.17v10.34c0,2.86-2.32,5.17-5.17,5.17h-10.34c-2.86,0-5.17-2.86-5.17-5.17v-10.34c0-2.86,2.32-5.17,5.17-5.17h0Z"/>
    <path class="cls-4" d="M282.4,326.71h10.34c2.86,0,5.17,2.86,5.17,5.17v10.34c0,2.86-2.32,5.17-5.17,5.17h-10.34c-2.86,0-5.17-2.86-5.17-5.17v-10.34c0-2.86,2.32-5.17,5.17-5.17Z"/>
    <path class="cls-3" d="M313.43,326.71h10.34c2.86,0,5.17,2.86,5.17,5.17v10.34c0,2.86-2.32,5.17-5.17,5.17h-10.34c-2.86,0-5.17-2.86-5.17-5.17v-10.34c0-2.86,2.32-5.17,5.17-5.17Z"/>
    <path class="cls-6" d="M344.47,326.71h10.34c2.86,0,5.17,2.86,5.17,5.17v10.34c0,2.86-2.32,5.17-5.17,5.17h-10.34c-2.86,0-5.17-2.86-5.17-5.17v-10.34c0-2.86,2.32-5.17,5.17-5.17Z"/>
    <path class="cls-3" d="M313.43,368.09h-20.69c-2.86,0-5.17-2.32-5.17-5.17s2.32-5.17,5.17-5.17h20.69c2.86,0,5.17,2.32,5.17,5.17s-2.32,5.17-5.17,5.17Z"/>
    <path class="cls-7" d="M359.98,192.23h-10.34c-2.86,0-5.17-2.32-5.17-5.17s2.32-5.17,5.17-5.17h10.34c2.86,0,5.17,2.32,5.17,5.17s-2.32,5.17-5.17,5.17ZM256.54,192.23h-10.34c-2.86,0-5.17-2.32-5.17-5.17s2.32-5.17,5.17-5.17h10.34c2.86,0,5.17,2.32,5.17,5.17s-2.32,5.17-5.17,5.17Z"/>
  </g>
</svg>