<?xml version="1.0" encoding="UTF-8"?>
<svg id="Layer_1" data-name="Layer 1" xmlns="http://www.w3.org/2000/svg" version="1.1" viewBox="0 0 1501 1501">
  <defs>
    <style>
      .cls-1 {
        fill: #57a0d7;
      }

      .cls-1, .cls-2 {
        stroke-width: 0px;
      }

      .cls-2 {
        fill: #cfd8dc;
      }
    </style>
  </defs>
  <path class="cls-2" d="M966.02,560.84c-4.76,0-8.62,3.86-8.62,8.62v362.07c0,4.76,3.86,8.62,8.62,8.62s8.62-3.86,8.62-8.62v-362.07c0-4.76-3.86-8.62-8.62-8.62ZM931.53,526.36h-362.07c-4.76,0-8.62,3.86-8.62,8.62s3.86,8.62,8.62,8.62h362.07c4.76,0,8.62-3.86,8.62-8.62s-3.86-8.62-8.62-8.62ZM931.53,957.4h-362.07c-4.76,0-8.62,3.86-8.62,8.62s3.86,8.62,8.62,8.62h362.07c4.76,0,8.62-3.86,8.62-8.62s-3.86-8.62-8.62-8.62ZM534.98,560.84c-4.76,0-8.62,3.86-8.62,8.62v362.07c0,4.76,3.86,8.62,8.62,8.62s8.62-3.86,8.62-8.62v-362.07c0-4.76-3.86-8.62-8.62-8.62Z"/>
  <rect class="cls-1" x="500.5" y="500.5" width="68.97" height="68.97"/>
  <rect class="cls-1" x="931.53" y="500.5" width="68.97" height="68.97"/>
  <rect class="cls-1" x="500.5" y="931.53" width="68.97" height="68.97"/>
  <rect class="cls-1" x="931.53" y="931.53" width="68.97" height="68.97"/>
</svg>