<?xml version="1.0" encoding="UTF-8"?>
<svg id="Layer_1" data-name="Layer 1" xmlns="http://www.w3.org/2000/svg" version="1.1" viewBox="0 0 512 512">
  <defs>
    <style>
      .cls-1 {
        fill: #e7bdb9;
      }

      .cls-1, .cls-2 {
        stroke-width: 0px;
      }

      .cls-2 {
        fill: #904a46;
      }
    </style>
  </defs>
  <path class="cls-2" d="M24.03,24.03c21.31-.06,42.63-.05,63.94,0,.1,8-.03,16.01.05,24.01.04,5.32-.05,10.64-.01,15.96-.05,7.98.06,15.97-.06,23.95-7.98.12-15.97.01-23.95.06-5.32-.04-10.64.05-15.95.01-8.01-.08-16.01.05-24.02-.05-.06-21.31-.05-42.63,0-63.94Z"/>
  <path class="cls-2" d="M424.03,24.03c21.31-.06,42.63-.05,63.94,0,.06,21.31.05,42.63,0,63.94-8,.07-16.01.02-24.01.03-5.32-.04-10.63.07-15.95.03-7.99-.11-15.98.07-23.96-.08-.15-7.98.01-15.97-.06-23.95-.04-5.32-.01-10.64.01-15.97.02-8-.05-16,.03-24Z"/>
  <path class="cls-2" d="M24.03,424.03c8-.08,16,0,24.01-.03,5.32-.02,10.64-.05,15.96-.01,7.98.07,15.97-.09,23.95.06.15,7.98-.03,15.97.08,23.96.04,5.31-.07,10.63-.03,15.95-.02,8,.04,16.01-.03,24.01-21.31.05-42.63.05-63.94,0-.05-21.31-.05-42.63,0-63.94Z"/>
  <path class="cls-2" d="M424.05,424.05c7.98-.13,15.97,0,23.95-.06,5.32-.02,10.64-.03,15.97.01,8,.04,16-.06,24,.03.06,21.31.05,42.63,0,63.94-21.31.05-42.63.06-63.94,0-.09-8,0-16.01-.04-24-.03-5.33-.02-10.65,0-15.97.06-7.98-.07-15.97.06-23.95Z"/>
  <g>
    <path class="cls-1" d="M88.02,48.04c111.99-.07,223.98-.05,335.98-.01-.02,5.33-.05,10.65-.01,15.97-112-.01-223.99,0-335.98,0-.04-5.32.05-10.64.01-15.96Z"/>
    <path class="cls-1" d="M48.05,88.02c5.31.04,10.63-.05,15.95-.01,0,111.99-.01,223.98,0,335.98-5.32-.04-10.64-.01-15.96.01-.05-112-.07-223.99.01-335.98Z"/>
    <path class="cls-1" d="M448.01,88.03c5.32.04,10.63-.07,15.95-.03.06,112,.06,224,.01,336-5.33-.04-10.65-.03-15.97-.01.01-111.99,0-223.98.01-335.96Z"/>
    <path class="cls-1" d="M88.03,448.01c111.98-.01,223.97,0,335.96-.01-.02,5.32-.03,10.64,0,15.97-111.99.05-223.99.05-335.99-.01-.04-5.32.07-10.64.03-15.95Z"/>
  </g>
</svg>