<?xml version="1.0" encoding="UTF-8"?>
<svg xmlns="http://www.w3.org/2000/svg" version="1.1" viewBox="0 0 263.7 263.7">
  <!-- Generator: Adobe Illustrator 28.7.1, SVG Export Plug-In . SVG Version: 1.2.0 Build 142)  -->
  <g>
    <g id="Layer_1">
      <g id="Layer_1-2" data-name="Layer_1">
        <path d="M224,157.7h-26.5v39.8h-39.8v26.5h39.8v39.8h26.5v-39.8h39.8v-26.5h-39.8v-39.8h0ZM25.2,224h39.8v-26.5h-26.5v-26.5H12v39.8c0,7.3,5.9,13.2,13.2,13.2ZM224,25.2c0-7.3-5.9-13.2-13.2-13.2h-39.8v26.5h26.5v26.5h26.5V25.2ZM38.5,38.5h26.5V12H25.2c-7.3,0-13.2,5.9-13.2,13.2v39.8h26.5v-26.5ZM12,91.5h26.5v53H12v-53ZM197.5,91.5h26.5v39.8h-26.5v-39.8ZM91.5,12h53v26.5h-53V12ZM91.5,197.5h39.8v26.5h-39.8v-26.5Z"/>
        <path d="M135.6,118l22.3-22.2c3.5-3.5,3.5-9.1,0-12.6l-5-5c-3.5-3.5-9.1-3.5-12.6,0l-22.2,22.2-22.2-22.2c-3.5-3.5-9.1-3.5-12.6,0l-5,5c-3.5,3.5-3.5,9.1,0,12.6l22.2,22.2-22.2,22.2c-3.5,3.5-3.5,9.1,0,12.6l5,5c3.5,3.5,9.1,3.5,12.6,0l22.2-22.2,22.2,22.2c3.5,3.5,9.1,3.5,12.6,0l5-5c3.5-3.5,3.5-9.1,0-12.6,0,0-22.2-22.2-22.3-22.2h0Z"/>
      </g>
    </g>
  </g>
</svg>