<?xml version="1.0" encoding="UTF-8"?>
<svg id="Layer_1" xmlns="http://www.w3.org/2000/svg" viewBox="0 0 251.72 251.72">
  <defs>
    <style>
      .cls-1 {
        fill: #232323;
      }
    </style>
  </defs>
  <path d="M211.98,145.73h-26.5v39.75h-39.75v26.5h39.75v39.75h26.5v-39.75h39.75v-26.5h-39.75v-39.75ZM13.25,211.98h39.75v-26.5h-26.5v-26.5H0v39.75c0,7.32,5.93,13.25,13.25,13.25ZM211.98,13.25c0-7.32-5.93-13.25-13.25-13.25h-39.75v26.5h26.5v26.5h26.5V13.25ZM26.5,26.5h26.5V0H13.25C5.93,0,0,5.93,0,13.25v39.75h26.5v-26.5ZM0,79.49h26.5v52.99H0v-52.99ZM185.48,79.49h26.5v39.75h-26.5v-39.75ZM79.49,0h52.99v26.5h-52.99V0ZM79.49,185.48h39.75v26.5h-39.75v-26.5Z"/>
  <path class="cls-1" d="M123.63,105.99l22.25-22.25c3.48-3.48,3.47-9.13-.02-12.62l-5.01-5.01c-3.49-3.49-9.14-3.5-12.62-.02l-22.25,22.25-22.25-22.25c-3.48-3.48-9.13-3.47-12.62.02l-5.01,5.01c-3.49,3.49-3.5,9.14-.02,12.62l22.25,22.25-22.25,22.25c-3.48,3.48-3.47,9.13.02,12.62l5.01,5.01c3.49,3.49,9.14,3.5,12.62.02l22.25-22.25,22.25,22.25c3.48,3.48,9.13,3.47,12.62-.02l5.01-5.01c3.49-3.49,3.5-9.14.02-12.62l-22.25-22.25Z"/>
</svg>